# xmcd
#
# Track frame offsets: 
#        150
#        3673
#        24195
#        44312
#        59565
#        77865
#        92738
#        108758
#        121372
#        145137
#        160748
#        172879
#        187932
#
# Disc length: 2889 seconds
#
# Revision: 1
# Processed by: cddbd v1.5.2PL0 Copyright (c) Steve Scherf et al.
# Submitted via: ExactAudioCopy v0.99pb5
#
DISCID=9b0b470d
DTITLE=Blackmailers - Zlatno Zrno Blues
DYEAR=2005
DGENRE=Blues
TTITLE0=(Intro) People Get Ready
TTITLE1=Rock This House
TTITLE2=Blues For Kusturica
TTITLE3=Alimony Blues
TTITLE4=Bad Bad Whiskey
TTITLE5=5-10-15 Hours
TTITLE6=Howlin' for My Darling
TTITLE7=Going To New York
TTITLE8=Nine Pound Steel
TTITLE9=300 Pounds Of Joy
TTITLE10=Oooh-La-La
TTITLE11=Why Don't You Eat Where You Slept Last Night?
TTITLE12=Brujo
EXTD=
EXTT0=
EXTT1=
EXTT2=
EXTT3=
EXTT4=
EXTT5=
EXTT6=
EXTT7=
EXTT8=
EXTT9=
EXTT10=
EXTT11=
EXTT12=
PLAYORDER=
